<?xml version="1.0" encoding="UTF-8"?>
<svg width="20px" height="30px" viewBox="0 0 122 186" version="1.1" xmlns="http://www.w3.org/2000/svg" xmlns:xlink="http://www.w3.org/1999/xlink">
    <!-- Generator: Sketch 52.6 (67491) - http://www.bohemiancoding.com/sketch -->
    <title>astronaut_red</title>
    <desc>Created with Sketch.</desc>
    <g id="Page-1" stroke="none" stroke-width="1" fill="none" fill-rule="evenodd">
        <g id="00_00_superluminar_home" transform="translate(-398.000000, -239.000000)" fill-rule="nonzero">
            <g id="01_content" transform="translate(37.000000, 83.000000)">
                <g id="illu_astronauts" transform="translate(227.000000, 156.000000)">
                    <g id="astronaut_red" transform="translate(134.000000, 0.000000)">
                        <path d="M15.3138272,64.9255157 L8.44862041,52.2674066 C4.17412301,29.4406195 10.6504675,13.9937165 27.8776538,5.9266975 C45.1048401,-2.14032145 58.827443,-0.300583176 69.0454625,11.4459123 C79.4169885,27.0463671 84.6027516,37.5673048 84.6027516,43.0087256 C84.6027516,51.1708567 88.5435969,45.8008568 86.3197933,51.1708567 C84.8372577,54.7508566 63.5078521,62.278473 22.3315767,73.7537058 L42.851099,128.014973 C39.9357741,131.79276 37.5009907,133.992116 35.5467487,134.613043 C32.6153856,135.544434 20.2392638,134.613043 19.7747747,133.727552 C9.22873781,113.62283 1,77.6891299 1,73.7537058 C1,71.1300897 5.77127574,68.1873597 15.3138272,64.9255157 Z" id="Path-21" fill="#FFFFFF"></path>
                        <path d="M14.3541251,64.039691 C14.7681526,63.9032747 15.2138842,64.1298207 15.3496945,64.5456957 C15.4855048,64.9615707 15.2599652,65.4092913 14.8459377,65.5457076 C5.95774648,68.4742435 1.57792849,71.4861226 1.57792849,74.2901863 C1.57792849,79.7349854 18.3329414,132.279561 20.4893762,132.93663 C20.7175392,133.008457 20.9861622,133.089223 21.3547835,133.191085 C21.9543595,133.356766 22.6145247,133.519917 23.3295884,133.672627 C26.3449105,134.316585 29.4103819,134.592321 32.2528484,134.295431 C37.1950172,133.779231 40.7541324,131.607467 42.4797742,127.33649 C42.6436327,126.930939 43.1037699,126.735602 43.5075192,126.900191 C43.9112686,127.064781 44.1057386,127.526971 43.9418801,127.932522 C41.9711209,132.810167 37.8905933,135.300095 32.4160477,135.871901 C29.3865652,136.188324 26.1648963,135.898538 23.0014351,135.222944 C22.2547804,135.063487 21.5646677,134.892935 20.9362394,134.719281 C20.5476778,134.611909 20.2603229,134.525511 20.0313259,134.453351 C16.9361171,133.510236 0,80.3977085 0,74.2901863 C3.06574194e-16,70.4983412 4.82756013,67.1785623 14.3541251,64.039691 Z" id="Path-8" fill="#393F4D"></path>
                        <rect id="Rectangle" fill="#FF3B61" transform="translate(54.500000, 72.000000) rotate(-18.000000) translate(-54.500000, -72.000000) " x="21" y="10" width="67" height="124" rx="33.3899995"></rect>
                        <path d="M16.4431709,52.2172517 C16.1769466,52.5671511 15.6741191,52.6375101 15.3200743,52.374403 C14.9660294,52.1112959 14.8948368,51.614356 15.1610611,51.2644566 C27.9989272,34.391612 37.7319298,24.2615518 44.4560519,20.830676 C53.6817644,16.1234037 67.7523589,11 70.9721692,11 C74.7528983,11 89.1805436,35.9453814 87.9225402,41.4811317 C86.7432078,46.6706963 60.2050663,57.9307791 47.1604489,60.7873552 C41.335398,62.0629542 32.378341,62.3297575 20.2618425,61.599259 C19.8196937,61.572602 19.483127,61.1967567 19.5100998,60.7597849 C19.5370726,60.3228131 19.9173708,59.9901873 20.3595196,60.0168442 C32.3392406,60.7390965 41.1663531,60.4761639 46.8134216,59.2395403 C59.1068266,56.5474686 85.3887641,45.3960926 86.357389,41.1337304 C87.4125224,36.4906943 73.5864065,12.5853565 70.9721692,12.5853565 C68.092052,12.5853565 54.1959395,17.6452276 45.1919478,22.2393703 C38.7534912,25.5244899 29.1385712,35.5316504 16.4431709,52.2172517 Z" id="Path-11" fill="#393F4D"></path>
                        <path d="M15.6452091,76.557952 C15.2125241,76.4746053 14.9303674,76.0615858 15.0149946,75.6354472 C15.0996218,75.2093086 15.5189862,74.931421 15.9516712,75.0147677 C36.7774575,79.0263743 48.4157602,85.1150773 50.7899529,93.4786449 C52.9670728,101.147984 53.7651356,110.72545 52.1329447,117.449961 C49.9008862,126.645884 43.4644089,130.335743 32.6392981,126.496095 C32.224496,126.348965 32.0093368,125.898517 32.1587266,125.489991 C32.3081164,125.081465 32.7654843,124.869561 33.1802864,125.016691 C43.0867997,128.530513 48.5640139,125.390574 50.5801168,117.084373 C52.1395853,110.659474 51.3627056,101.336224 49.2523358,93.9020251 C47.0973934,86.3108103 35.92056,80.4635299 15.6452091,76.557952 Z" id="Path-5" fill="#393F4D"></path>
                        <path d="M23.8824824,81.4674247 C24.0598945,81.0707785 24.5281589,80.8917694 24.9283803,81.0675967 C25.3286016,81.2434239 25.5092243,81.7075053 25.3318122,82.1041515 C18.4812983,97.4200779 19.0888745,106.431963 26.8214739,109.514005 C37.4399848,113.746309 47.9903431,102.39763 49.4185113,88.210192 C49.4619708,87.778465 49.8503403,87.4633972 50.2859587,87.5064684 C50.7215772,87.5495397 51.0394849,87.9344398 50.9960254,88.3661669 C49.4783234,103.443034 38.0860719,115.69731 26.2299405,110.971719 C17.3882104,107.447601 16.7167467,97.4881034 23.8824824,81.4674247 Z" id="Path-6" fill="#393F4D"></path>
                        <path d="M85.3023836,60.5429618 C84.9533471,60.2731998 84.8984249,59.7831573 85.1797116,59.4484212 C85.4609983,59.1136852 85.9719762,59.0610132 86.3210128,59.3307752 C89.878149,62.0800002 93.5855843,63.4431702 97.4649113,63.4431702 C106.700415,63.4431702 117.37666,55.2093548 117.37666,42.7784149 C117.37666,42.3485082 117.740057,42 118.18833,42 C118.636603,42 119,42.3485082 119,42.7784149 C119,56.1529675 107.528637,65 97.4649113,65 C93.1984351,65 89.1370617,63.5066922 85.3023836,60.5429618 Z" id="Path-7" fill="#393F4D"></path>
                        <path d="M28.8581762,136 L30.3531849,136.379654 C29.2986174,140.823833 29.2986174,143.607685 30.1792813,144.625877 C31.4162827,146.056053 32.2025809,147.026248 33.1255404,148.351814 C35.149718,151.258964 36.4441249,154.086889 36.7005174,156.797864 C36.7305738,157.115665 36.7458135,157.430289 36.7458135,157.74157 C36.7458135,159.816518 35.9493052,161.903129 34.2485064,164.977461 C34.0258192,165.379986 33.8145147,165.75366 33.4537378,166.385958 C31.1016998,170.508142 30.3753776,172.137438 30.3753776,173.952428 C30.3753776,175.801847 31.4669893,177.234405 34.4806726,179.9271 C34.9856503,180.377388 35.2316183,180.597481 35.4884169,180.831106 C37.5896579,182.742731 38.6311924,184.042514 39,185.627249 L37.5033692,186 C37.2337636,184.841528 36.3411715,183.727618 34.4718281,182.026964 C34.2205734,181.798382 33.9800359,181.583149 33.4744566,181.13231 C30.1109453,178.127047 28.8359835,176.453873 28.8359835,173.952428 C28.8359835,171.726429 29.6110858,169.987709 32.1280591,165.576459 C32.4855466,164.949926 32.6940982,164.58112 32.9124467,164.186437 C34.4868387,161.340596 35.2064193,159.455512 35.2064193,157.74157 C35.2064193,157.482781 35.1936844,157.219868 35.1684386,156.952932 C34.9437101,154.576757 33.7561063,151.982168 31.8764453,149.282575 C30.9931419,148.013963 30.2354491,147.079064 29.0320798,145.687771 C27.6864602,144.132015 27.6864602,140.937868 28.8581762,136 Z" id="Path-9" fill="#393F4D"></path>
                        <path d="M9.00010045,53.1314495 C8.57954035,53.2462479 8.14459457,53.0018313 8.02862186,52.5855297 C7.91264915,52.1692281 8.15956601,51.7386865 8.58012611,51.6238881 C14.1664559,50.0990129 17.8987943,51.3655001 19.4335194,55.4662999 C21.3126607,60.4873833 18.1838059,65 14.9237199,65 C14.4874625,65 14.1338061,64.6499246 14.1338061,64.2180847 C14.1338061,63.7862449 14.4874625,63.4361695 14.9237199,63.4361695 C17.0781049,63.4361695 19.4507959,60.0141361 17.9520816,56.009557 C16.7416326,52.775226 13.8721796,51.80154 9.00010045,53.1314495 Z" id="Path-10" fill="#393F4D"></path>
                        <path d="M10.4025784,51.5292046 L8.87667252,52 C6.96107445,45.9597937 6,41.0157273 6,37.1536443 C6,32.0571997 8.65727226,23.7081192 13.7956415,16.8923928 C21.3899321,6.81903981 33.4225047,0.619256188 50.5195722,0.00856248691 C59.1414432,-0.299403913 71,7.77657742 71,11.8847491 L69.4011818,11.8847491 C69.4011818,8.80531904 58.3886392,1.30549513 50.5774338,1.5845052 C33.9638609,2.17792886 22.3825354,8.14520738 15.0786269,17.8333865 C10.1507638,24.3698897 7.59881824,32.3880365 7.59881824,37.1536443 C7.59881824,40.8319255 8.53122137,45.6284977 10.4025784,51.5292046 Z" id="Path-12" fill="#393F4D"></path>
                        <path d="M41.9051439,36.7066348 C41.8172918,36.9376613 41.5497375,37.0570106 41.3075446,36.9732089 C41.0653518,36.8894073 40.9402339,36.6341886 41.028086,36.4031622 C42.4444476,32.6785273 45.046073,31.2850491 48.6700618,32.3443521 C48.9163903,32.4163546 49.0548882,32.6652062 48.9794054,32.9001777 C48.9039227,33.1351491 48.6430431,33.2672615 48.3967146,33.1952589 C45.2680564,32.2807426 43.1584997,33.4106598 41.9051439,36.7066348 Z" id="Path-13" fill="#393F4D"></path>
                        <path d="M61.8455715,27.59178 C61.6954857,27.7937708 61.4040896,27.8401361 61.19472,27.6953398 C60.9853504,27.5505435 60.9372913,27.269417 61.0873771,27.0674263 C62.6142724,25.0124768 64.8603013,24.4903562 67.694572,25.4969596 C67.9363187,25.582817 68.0601494,25.8414858 67.9711556,26.0747126 C67.8821618,26.3079394 67.6140436,26.4274059 67.3722969,26.3415486 C64.9117831,25.4676865 63.113172,25.8857986 61.8455715,27.59178 Z" id="Path-14" fill="#393F4D"></path>
                        <path d="M64.0203547,49.4127545 C64.4166869,49.2879174 64.8395311,49.5068904 64.9648038,49.9018443 C65.0900765,50.2967982 64.8703394,50.718172 64.4740072,50.8430091 C63.1095928,51.2727735 61.5288023,51.4854685 59.7314775,51.4854685 C57.9083209,51.4854685 56.1510808,51.1377126 54.4653109,50.4433167 C54.0811753,50.285085 53.8984917,49.8464925 54.0572755,49.4636928 C54.2160593,49.080893 54.6561824,48.8988447 55.040318,49.0570763 C56.5437794,49.6763764 58.1056481,49.9854685 59.7314775,49.9854685 C61.3831389,49.9854685 62.8128174,49.7931056 64.0203547,49.4127545 Z" id="Path-15" fill="#393F4D"></path>
                        <path d="M49,38.7679123 C49,38.3438061 49.3357864,38 49.75,38 C50.1642136,38 50.5,38.3438061 50.5,38.7679123 L50.5,43.2320877 C50.5,43.6561939 50.1642136,44 49.75,44 C49.3357864,44 49,43.6561939 49,43.2320877 L49,38.7679123 Z" id="Path-15-Copy-2" fill="#393F4D"></path>
                        <path d="M66,34.7679123 C66,34.3438061 66.3357864,34 66.75,34 C67.1642136,34 67.5,34.3438061 67.5,34.7679123 L67.5,39.2320877 C67.5,39.6561939 67.1642136,40 66.75,40 C66.3357864,40 66,39.6561939 66,39.2320877 L66,34.7679123 Z" id="Path-15-Copy" fill="#393F4D"></path>
                        <path d="M15.0018412,64.2519543 L16.59714,64.2781158 C16.5242337,68.7991719 18.876578,71.4075274 23.879271,72.2806114 C28.4492193,73.0781715 46.5633552,69.7704484 60.6262021,65.2377102 C73.0148756,61.2445917 84.562979,55.2508657 85.5654013,52.6904146 C87.0147111,48.9884951 86.5861912,46.2215516 84.3256745,44.2051535 L85.382771,43 C88.1886421,45.5028584 88.7289204,48.9914226 87.0494386,53.281262 C85.7879011,56.5035615 74.0280907,62.6071683 61.1119562,66.770298 C46.8149044,71.3785252 28.5083718,74.7213808 23.6071919,73.8660132 C17.8590979,72.8628398 14.9156149,69.5990105 15.0018412,64.2519543 Z" id="Path-16" fill="#393F4D"></path>
                        <path d="M57.0029743,77.1054096 C56.9737463,76.7623542 57.1621558,76.4387706 57.4702034,76.3029676 L76.157281,68.0647549 C76.5200668,67.9048205 76.9419207,68.0500474 77.1376451,68.4022539 L82.8976744,78.7674393 C83.1211898,79.1696557 82.9653224,79.6822185 82.5586818,79.8822006 C65.6281352,88.208491 59.6563544,90.8510192 58.7939618,89.7704643 C58.2013015,89.0278768 57.6885938,85.1526958 57.0029743,77.1054096 Z M60.8114353,88.1819351 C61.7938296,87.8362963 63.231205,87.2453021 65.1169324,86.4108629 C68.7804305,84.7897557 74.1209444,82.2568499 81.1353491,78.8134248 L76.1327837,69.8112974 L58.5991396,77.5410181 C59.1186243,83.5307258 59.5998019,87.3884625 59.8858158,88.4693994 C60.1150225,88.4136519 60.4255941,88.3176868 60.8114353,88.1819351 Z" id="Path-17" fill="#393F4D"></path>
                        <path d="M29.2105156,104.059426 C29.2591288,103.689772 29.5611777,103.403661 29.9360566,103.372169 C45.006557,102.106176 55.8549899,101.191247 62.4811999,100.627394 C70.1333341,99.9762411 85.9925222,90.6444604 93.5469754,84.3527563 C94.4642458,83.5888104 95.52118,84.1306811 96.528696,85.3535542 C97.3101222,86.3020106 98.1038633,87.7192232 98.7319528,89.2833007 C100.243714,93.04791 100.515968,96.6682798 98.934594,98.6770921 C88.9522893,111.357572 40.9591586,123.117718 33.704262,117.605133 C29.8964647,114.711803 28.408474,110.158142 29.2105156,104.059426 Z M34.6776813,116.3474 C41.1624212,121.274787 88.1876772,109.751807 97.6732937,97.7022683 C98.8003705,96.2705473 98.5663015,93.1579502 97.2456626,89.869276 C96.6739757,88.4456529 95.957873,87.1670627 95.2895435,86.3558774 C94.7878562,85.7469542 94.522425,85.6108725 94.5762299,85.5660613 C86.7797735,92.059317 70.7040851,101.51849 62.6180726,102.206563 C56.0868487,102.762333 45.4547224,103.659091 30.721545,104.89685 C30.1657355,110.145087 31.4932773,113.927752 34.6776813,116.3474 Z" id="Path-18" fill="#393F4D"></path>
                        <path d="M64.0018406,98.8177998 C63.9730813,98.3964999 64.2847434,98.0311987 64.6979574,98.0018767 C65.1111714,97.9725546 65.4694615,98.2903154 65.4982208,98.7116152 L66.3495034,111.1822 C66.3782626,111.6035 66.0666006,111.968801 65.6533866,111.998123 C65.2401726,112.027445 64.8818825,111.709685 64.8531232,111.288385 L64.0018406,98.8177998 Z" id="Path-19" fill="#393F4D"></path>
                        <path d="M83.0018406,92.8177998 C82.9730813,92.3964999 83.2847434,92.0311987 83.6979574,92.0018767 C84.1111714,91.9725546 84.4694615,92.2903154 84.4982208,92.7116152 L85.3495034,105.1822 C85.3782626,105.6035 85.0666006,105.968801 84.6533866,105.998123 C84.2401726,106.027445 83.8818825,105.709685 83.8531232,105.288385 L83.0018406,92.8177998 Z" id="Path-19-Copy" fill="#393F4D"></path>
                        <path d="M86.1714317,158.129887 C87.4034194,157.692599 89.2901657,156.80108 91.8142472,155.460028 C92.2042757,155.252805 92.6916942,155.394996 92.9029268,155.777622 C93.1141594,156.160247 92.9692167,156.638414 92.5791882,156.845637 C89.9903457,158.221097 88.0423991,159.141534 86.7179249,159.61165 C85.9987894,159.866903 85.4421751,159.999028 85.0084935,159.999995 C84.2910309,160.001595 83.7242035,159.603001 83.7242035,158.875043 C83.7242035,148.655051 78.9272673,139.50465 69.2802209,131.385892 C68.9435682,131.102572 68.9047773,130.605165 69.1935791,130.274902 C69.4823808,129.944639 69.9894118,129.906585 70.3260645,130.189905 C80.157476,138.46382 85.1746688,147.872957 85.3268882,158.381095 C85.5427823,158.335121 85.8273721,158.252009 86.1714317,158.129887 Z" id="Path-20" fill="#393F4D"></path>
                        <path d="M113.339492,142.770418 C114.522722,141.980423 116.324415,140.553833 118.732036,138.498016 C119.059672,138.218255 119.546979,138.263158 119.820466,138.598311 C120.093953,138.933463 120.050057,139.43195 119.722421,139.711711 C117.271931,141.804132 115.430041,143.262551 114.184216,144.094338 C113.517245,144.539647 113.005997,144.817517 112.609781,144.934488 C111.876903,145.150848 111.16731,144.831773 111.16731,143.970206 C111.16731,133.716533 106.551802,124.535974 97.2696224,116.390459 C96.9457025,116.106206 96.9083788,115.607159 97.1862576,115.275808 C97.4641364,114.944457 97.9519906,114.906277 98.2759105,115.190531 C107.643551,123.411042 112.46865,132.748486 112.703782,143.167572 C112.884464,143.064533 113.097538,142.93196 113.339492,142.770418 Z" id="Path-20-Copy" fill="#393F4D" transform="translate(108.500000, 130.000000) rotate(-8.000000) translate(-108.500000, -130.000000) "></path>
                        <path d="M15.3138272,64.9255157 L8.44862041,52.2674066 C4.17412301,29.4406195 10.6504675,13.9937165 27.8776538,5.9266975 C45.1048401,-2.14032145 58.827443,-0.300583176 69.0454625,11.4459123 C79.4169885,27.0463671 84.6027516,37.5673048 84.6027516,43.0087256 C84.6027516,51.1708567 88.5435969,45.8008568 86.3197933,51.1708567 C84.8372577,54.7508566 63.5078521,62.278473 22.3315767,73.7537058 L42.851099,128.014973 C39.9357741,131.79276 37.5009907,133.992116 35.5467487,134.613043 C32.6153856,135.544434 20.2392638,134.613043 19.7747747,133.727552 C9.22873781,113.62283 1,77.6891299 1,73.7537058 C1,71.1300897 5.77127574,68.1873597 15.3138272,64.9255157 Z" id="Path-21" fill="#FFFFFF"></path>
                        <path d="M14.3541251,64.039691 C14.7681526,63.9032747 15.2138842,64.1298207 15.3496945,64.5456957 C15.4855048,64.9615707 15.2599652,65.4092913 14.8459377,65.5457076 C5.95774648,68.4742435 1.57792849,71.4861226 1.57792849,74.2901863 C1.57792849,79.7349854 18.3329414,132.279561 20.4893762,132.93663 C20.7175392,133.008457 20.9861622,133.089223 21.3547835,133.191085 C21.9543595,133.356766 22.6145247,133.519917 23.3295884,133.672627 C26.3449105,134.316585 29.4103819,134.592321 32.2528484,134.295431 C37.1950172,133.779231 40.7541324,131.607467 42.4797742,127.33649 C42.6436327,126.930939 43.1037699,126.735602 43.5075192,126.900191 C43.9112686,127.064781 44.1057386,127.526971 43.9418801,127.932522 C41.9711209,132.810167 37.8905933,135.300095 32.4160477,135.871901 C29.3865652,136.188324 26.1648963,135.898538 23.0014351,135.222944 C22.2547804,135.063487 21.5646677,134.892935 20.9362394,134.719281 C20.5476778,134.611909 20.2603229,134.525511 20.0313259,134.453351 C16.9361171,133.510236 0,80.3977085 0,74.2901863 C3.06574194e-16,70.4983412 4.82756013,67.1785623 14.3541251,64.039691 Z" id="Path-8" fill="#393F4D"></path>
                        <rect id="Rectangle" fill="#FF3B61" transform="translate(54.500000, 72.000000) rotate(-18.000000) translate(-54.500000, -72.000000) " x="21" y="10" width="67" height="124" rx="33.3899995"></rect>
                        <path d="M16.4431709,52.2172517 C16.1769466,52.5671511 15.6741191,52.6375101 15.3200743,52.374403 C14.9660294,52.1112959 14.8948368,51.614356 15.1610611,51.2644566 C27.9989272,34.391612 37.7319298,24.2615518 44.4560519,20.830676 C53.6817644,16.1234037 67.7523589,11 70.9721692,11 C74.7528983,11 89.1805436,35.9453814 87.9225402,41.4811317 C86.7432078,46.6706963 60.2050663,57.9307791 47.1604489,60.7873552 C41.335398,62.0629542 32.378341,62.3297575 20.2618425,61.599259 C19.8196937,61.572602 19.483127,61.1967567 19.5100998,60.7597849 C19.5370726,60.3228131 19.9173708,59.9901873 20.3595196,60.0168442 C32.3392406,60.7390965 41.1663531,60.4761639 46.8134216,59.2395403 C59.1068266,56.5474686 85.3887641,45.3960926 86.357389,41.1337304 C87.4125224,36.4906943 73.5864065,12.5853565 70.9721692,12.5853565 C68.092052,12.5853565 54.1959395,17.6452276 45.1919478,22.2393703 C38.7534912,25.5244899 29.1385712,35.5316504 16.4431709,52.2172517 Z" id="Path-11" fill="#393F4D"></path>
                        <path d="M15.6452091,76.557952 C15.2125241,76.4746053 14.9303674,76.0615858 15.0149946,75.6354472 C15.0996218,75.2093086 15.5189862,74.931421 15.9516712,75.0147677 C36.7774575,79.0263743 48.4157602,85.1150773 50.7899529,93.4786449 C52.9670728,101.147984 53.7651356,110.72545 52.1329447,117.449961 C49.9008862,126.645884 43.4644089,130.335743 32.6392981,126.496095 C32.224496,126.348965 32.0093368,125.898517 32.1587266,125.489991 C32.3081164,125.081465 32.7654843,124.869561 33.1802864,125.016691 C43.0867997,128.530513 48.5640139,125.390574 50.5801168,117.084373 C52.1395853,110.659474 51.3627056,101.336224 49.2523358,93.9020251 C47.0973934,86.3108103 35.92056,80.4635299 15.6452091,76.557952 Z" id="Path-5" fill="#393F4D"></path>
                        <path d="M23.8824824,81.4674247 C24.0598945,81.0707785 24.5281589,80.8917694 24.9283803,81.0675967 C25.3286016,81.2434239 25.5092243,81.7075053 25.3318122,82.1041515 C18.4812983,97.4200779 19.0888745,106.431963 26.8214739,109.514005 C37.4399848,113.746309 47.9903431,102.39763 49.4185113,88.210192 C49.4619708,87.778465 49.8503403,87.4633972 50.2859587,87.5064684 C50.7215772,87.5495397 51.0394849,87.9344398 50.9960254,88.3661669 C49.4783234,103.443034 38.0860719,115.69731 26.2299405,110.971719 C17.3882104,107.447601 16.7167467,97.4881034 23.8824824,81.4674247 Z" id="Path-6" fill="#393F4D"></path>
                        <path d="M85.3023836,60.5429618 C84.9533471,60.2731998 84.8984249,59.7831573 85.1797116,59.4484212 C85.4609983,59.1136852 85.9719762,59.0610132 86.3210128,59.3307752 C89.878149,62.0800002 93.5855843,63.4431702 97.4649113,63.4431702 C106.700415,63.4431702 117.37666,55.2093548 117.37666,42.7784149 C117.37666,42.3485082 117.740057,42 118.18833,42 C118.636603,42 119,42.3485082 119,42.7784149 C119,56.1529675 107.528637,65 97.4649113,65 C93.1984351,65 89.1370617,63.5066922 85.3023836,60.5429618 Z" id="Path-7" fill="#393F4D"></path>
                        <path d="M28.8581762,136 L30.3531849,136.379654 C29.2986174,140.823833 29.2986174,143.607685 30.1792813,144.625877 C31.4162827,146.056053 32.2025809,147.026248 33.1255404,148.351814 C35.149718,151.258964 36.4441249,154.086889 36.7005174,156.797864 C36.7305738,157.115665 36.7458135,157.430289 36.7458135,157.74157 C36.7458135,159.816518 35.9493052,161.903129 34.2485064,164.977461 C34.0258192,165.379986 33.8145147,165.75366 33.4537378,166.385958 C31.1016998,170.508142 30.3753776,172.137438 30.3753776,173.952428 C30.3753776,175.801847 31.4669893,177.234405 34.4806726,179.9271 C34.9856503,180.377388 35.2316183,180.597481 35.4884169,180.831106 C37.5896579,182.742731 38.6311924,184.042514 39,185.627249 L37.5033692,186 C37.2337636,184.841528 36.3411715,183.727618 34.4718281,182.026964 C34.2205734,181.798382 33.9800359,181.583149 33.4744566,181.13231 C30.1109453,178.127047 28.8359835,176.453873 28.8359835,173.952428 C28.8359835,171.726429 29.6110858,169.987709 32.1280591,165.576459 C32.4855466,164.949926 32.6940982,164.58112 32.9124467,164.186437 C34.4868387,161.340596 35.2064193,159.455512 35.2064193,157.74157 C35.2064193,157.482781 35.1936844,157.219868 35.1684386,156.952932 C34.9437101,154.576757 33.7561063,151.982168 31.8764453,149.282575 C30.9931419,148.013963 30.2354491,147.079064 29.0320798,145.687771 C27.6864602,144.132015 27.6864602,140.937868 28.8581762,136 Z" id="Path-9" fill="#393F4D"></path>
                        <path d="M9.00010045,53.1314495 C8.57954035,53.2462479 8.14459457,53.0018313 8.02862186,52.5855297 C7.91264915,52.1692281 8.15956601,51.7386865 8.58012611,51.6238881 C14.1664559,50.0990129 17.8987943,51.3655001 19.4335194,55.4662999 C21.3126607,60.4873833 18.1838059,65 14.9237199,65 C14.4874625,65 14.1338061,64.6499246 14.1338061,64.2180847 C14.1338061,63.7862449 14.4874625,63.4361695 14.9237199,63.4361695 C17.0781049,63.4361695 19.4507959,60.0141361 17.9520816,56.009557 C16.7416326,52.775226 13.8721796,51.80154 9.00010045,53.1314495 Z" id="Path-10" fill="#393F4D"></path>
                        <path d="M10.4025784,51.5292046 L8.87667252,52 C6.96107445,45.9597937 6,41.0157273 6,37.1536443 C6,32.0571997 8.65727226,23.7081192 13.7956415,16.8923928 C21.3899321,6.81903981 33.4225047,0.619256188 50.5195722,0.00856248691 C59.1414432,-0.299403913 71,7.77657742 71,11.8847491 L69.4011818,11.8847491 C69.4011818,8.80531904 58.3886392,1.30549513 50.5774338,1.5845052 C33.9638609,2.17792886 22.3825354,8.14520738 15.0786269,17.8333865 C10.1507638,24.3698897 7.59881824,32.3880365 7.59881824,37.1536443 C7.59881824,40.8319255 8.53122137,45.6284977 10.4025784,51.5292046 Z" id="Path-12" fill="#393F4D"></path>
                        <path d="M41.9051439,36.7066348 C41.8172918,36.9376613 41.5497375,37.0570106 41.3075446,36.9732089 C41.0653518,36.8894073 40.9402339,36.6341886 41.028086,36.4031622 C42.4444476,32.6785273 45.046073,31.2850491 48.6700618,32.3443521 C48.9163903,32.4163546 49.0548882,32.6652062 48.9794054,32.9001777 C48.9039227,33.1351491 48.6430431,33.2672615 48.3967146,33.1952589 C45.2680564,32.2807426 43.1584997,33.4106598 41.9051439,36.7066348 Z" id="Path-13" fill="#393F4D"></path>
                        <path d="M61.8455715,27.59178 C61.6954857,27.7937708 61.4040896,27.8401361 61.19472,27.6953398 C60.9853504,27.5505435 60.9372913,27.269417 61.0873771,27.0674263 C62.6142724,25.0124768 64.8603013,24.4903562 67.694572,25.4969596 C67.9363187,25.582817 68.0601494,25.8414858 67.9711556,26.0747126 C67.8821618,26.3079394 67.6140436,26.4274059 67.3722969,26.3415486 C64.9117831,25.4676865 63.113172,25.8857986 61.8455715,27.59178 Z" id="Path-14" fill="#393F4D"></path>
                        <path d="M64.0203547,49.4127545 C64.4166869,49.2879174 64.8395311,49.5068904 64.9648038,49.9018443 C65.0900765,50.2967982 64.8703394,50.718172 64.4740072,50.8430091 C63.1095928,51.2727735 61.5288023,51.4854685 59.7314775,51.4854685 C57.9083209,51.4854685 56.1510808,51.1377126 54.4653109,50.4433167 C54.0811753,50.285085 53.8984917,49.8464925 54.0572755,49.4636928 C54.2160593,49.080893 54.6561824,48.8988447 55.040318,49.0570763 C56.5437794,49.6763764 58.1056481,49.9854685 59.7314775,49.9854685 C61.3831389,49.9854685 62.8128174,49.7931056 64.0203547,49.4127545 Z" id="Path-15" fill="#393F4D"></path>
                        <path d="M49,38.7679123 C49,38.3438061 49.3357864,38 49.75,38 C50.1642136,38 50.5,38.3438061 50.5,38.7679123 L50.5,43.2320877 C50.5,43.6561939 50.1642136,44 49.75,44 C49.3357864,44 49,43.6561939 49,43.2320877 L49,38.7679123 Z" id="Path-15-Copy-2" fill="#393F4D"></path>
                        <path d="M66,34.7679123 C66,34.3438061 66.3357864,34 66.75,34 C67.1642136,34 67.5,34.3438061 67.5,34.7679123 L67.5,39.2320877 C67.5,39.6561939 67.1642136,40 66.75,40 C66.3357864,40 66,39.6561939 66,39.2320877 L66,34.7679123 Z" id="Path-15-Copy" fill="#393F4D"></path>
                        <path d="M15.0018412,64.2519543 L16.59714,64.2781158 C16.5242337,68.7991719 18.876578,71.4075274 23.879271,72.2806114 C28.4492193,73.0781715 46.5633552,69.7704484 60.6262021,65.2377102 C73.0148756,61.2445917 84.562979,55.2508657 85.5654013,52.6904146 C87.0147111,48.9884951 86.5861912,46.2215516 84.3256745,44.2051535 L85.382771,43 C88.1886421,45.5028584 88.7289204,48.9914226 87.0494386,53.281262 C85.7879011,56.5035615 74.0280907,62.6071683 61.1119562,66.770298 C46.8149044,71.3785252 28.5083718,74.7213808 23.6071919,73.8660132 C17.8590979,72.8628398 14.9156149,69.5990105 15.0018412,64.2519543 Z" id="Path-16" fill="#393F4D"></path>
                        <path d="M57.0029743,77.1054096 C56.9737463,76.7623542 57.1621558,76.4387706 57.4702034,76.3029676 L76.157281,68.0647549 C76.5200668,67.9048205 76.9419207,68.0500474 77.1376451,68.4022539 L82.8976744,78.7674393 C83.1211898,79.1696557 82.9653224,79.6822185 82.5586818,79.8822006 C65.6281352,88.208491 59.6563544,90.8510192 58.7939618,89.7704643 C58.2013015,89.0278768 57.6885938,85.1526958 57.0029743,77.1054096 Z M60.8114353,88.1819351 C61.7938296,87.8362963 63.231205,87.2453021 65.1169324,86.4108629 C68.7804305,84.7897557 74.1209444,82.2568499 81.1353491,78.8134248 L76.1327837,69.8112974 L58.5991396,77.5410181 C59.1186243,83.5307258 59.5998019,87.3884625 59.8858158,88.4693994 C60.1150225,88.4136519 60.4255941,88.3176868 60.8114353,88.1819351 Z" id="Path-17" fill="#393F4D"></path>
                        <path d="M29.2105156,104.059426 C29.2591288,103.689772 29.5611777,103.403661 29.9360566,103.372169 C45.006557,102.106176 55.8549899,101.191247 62.4811999,100.627394 C70.1333341,99.9762411 85.9925222,90.6444604 93.5469754,84.3527563 C94.4642458,83.5888104 95.52118,84.1306811 96.528696,85.3535542 C97.3101222,86.3020106 98.1038633,87.7192232 98.7319528,89.2833007 C100.243714,93.04791 100.515968,96.6682798 98.934594,98.6770921 C88.9522893,111.357572 40.9591586,123.117718 33.704262,117.605133 C29.8964647,114.711803 28.408474,110.158142 29.2105156,104.059426 Z M34.6776813,116.3474 C41.1624212,121.274787 88.1876772,109.751807 97.6732937,97.7022683 C98.8003705,96.2705473 98.5663015,93.1579502 97.2456626,89.869276 C96.6739757,88.4456529 95.957873,87.1670627 95.2895435,86.3558774 C94.7878562,85.7469542 94.522425,85.6108725 94.5762299,85.5660613 C86.7797735,92.059317 70.7040851,101.51849 62.6180726,102.206563 C56.0868487,102.762333 45.4547224,103.659091 30.721545,104.89685 C30.1657355,110.145087 31.4932773,113.927752 34.6776813,116.3474 Z" id="Path-18" fill="#393F4D"></path>
                        <path d="M64.0018406,98.8177998 C63.9730813,98.3964999 64.2847434,98.0311987 64.6979574,98.0018767 C65.1111714,97.9725546 65.4694615,98.2903154 65.4982208,98.7116152 L66.3495034,111.1822 C66.3782626,111.6035 66.0666006,111.968801 65.6533866,111.998123 C65.2401726,112.027445 64.8818825,111.709685 64.8531232,111.288385 L64.0018406,98.8177998 Z" id="Path-19" fill="#393F4D"></path>
                        <path d="M83.0018406,92.8177998 C82.9730813,92.3964999 83.2847434,92.0311987 83.6979574,92.0018767 C84.1111714,91.9725546 84.4694615,92.2903154 84.4982208,92.7116152 L85.3495034,105.1822 C85.3782626,105.6035 85.0666006,105.968801 84.6533866,105.998123 C84.2401726,106.027445 83.8818825,105.709685 83.8531232,105.288385 L83.0018406,92.8177998 Z" id="Path-19-Copy" fill="#393F4D"></path>
                        <path d="M86.1714317,158.129887 C87.4034194,157.692599 89.2901657,156.80108 91.8142472,155.460028 C92.2042757,155.252805 92.6916942,155.394996 92.9029268,155.777622 C93.1141594,156.160247 92.9692167,156.638414 92.5791882,156.845637 C89.9903457,158.221097 88.0423991,159.141534 86.7179249,159.61165 C85.9987894,159.866903 85.4421751,159.999028 85.0084935,159.999995 C84.2910309,160.001595 83.7242035,159.603001 83.7242035,158.875043 C83.7242035,148.655051 78.9272673,139.50465 69.2802209,131.385892 C68.9435682,131.102572 68.9047773,130.605165 69.1935791,130.274902 C69.4823808,129.944639 69.9894118,129.906585 70.3260645,130.189905 C80.157476,138.46382 85.1746688,147.872957 85.3268882,158.381095 C85.5427823,158.335121 85.8273721,158.252009 86.1714317,158.129887 Z" id="Path-20" fill="#393F4D"></path>
                        <path d="M113.339492,142.770418 C114.522722,141.980423 116.324415,140.553833 118.732036,138.498016 C119.059672,138.218255 119.546979,138.263158 119.820466,138.598311 C120.093953,138.933463 120.050057,139.43195 119.722421,139.711711 C117.271931,141.804132 115.430041,143.262551 114.184216,144.094338 C113.517245,144.539647 113.005997,144.817517 112.609781,144.934488 C111.876903,145.150848 111.16731,144.831773 111.16731,143.970206 C111.16731,133.716533 106.551802,124.535974 97.2696224,116.390459 C96.9457025,116.106206 96.9083788,115.607159 97.1862576,115.275808 C97.4641364,114.944457 97.9519906,114.906277 98.2759105,115.190531 C107.643551,123.411042 112.46865,132.748486 112.703782,143.167572 C112.884464,143.064533 113.097538,142.93196 113.339492,142.770418 Z" id="Path-20-Copy" fill="#393F4D" transform="translate(108.500000, 130.000000) rotate(-8.000000) translate(-108.500000, -130.000000) "></path>
                    </g>
                </g>
            </g>
        </g>
    </g>
</svg>